<svg width="1200" height="860" viewBox="0 0 1200 860" xmlns="http://www.w3.org/2000/svg" role="img" aria-label="Modern IT and BPO dashboard illustration">
  <defs>
    <linearGradient id="bgGrad" x1="0" y1="0" x2="1" y2="1">
      <stop offset="0%" stop-color="#f7fbff"/>
      <stop offset="100%" stop-color="#eaf3ff"/>
    </linearGradient>
    <linearGradient id="accent" x1="0" y1="0" x2="1" y2="1">
      <stop offset="0%" stop-color="#2f55e7"/>
      <stop offset="100%" stop-color="#11b9ff"/>
    </linearGradient>
  </defs>
  <rect width="1200" height="860" rx="30" fill="url(#bgGrad)"/>
  <rect x="52" y="58" width="1096" height="744" rx="22" fill="#ffffff" stroke="#d8e5ff" stroke-width="2"/>
  <rect x="98" y="108" width="320" height="654" rx="18" fill="#f5f9ff" stroke="#dce8ff"/>
  <rect x="452" y="108" width="650" height="196" rx="18" fill="#f7fbff" stroke="#dce8ff"/>
  <rect x="452" y="328" width="312" height="212" rx="18" fill="#f7fbff" stroke="#dce8ff"/>
  <rect x="790" y="328" width="312" height="212" rx="18" fill="#f7fbff" stroke="#dce8ff"/>
  <rect x="452" y="564" width="650" height="198" rx="18" fill="#f7fbff" stroke="#dce8ff"/>

  <rect x="132" y="152" width="252" height="14" rx="7" fill="url(#accent)"/>
  <rect x="132" y="182" width="204" height="10" rx="5" fill="#9bb7ff"/>
  <rect x="132" y="208" width="170" height="10" rx="5" fill="#b6cbff"/>
  <rect x="132" y="250" width="252" height="84" rx="14" fill="#ffffff" stroke="#d7e5ff"/>
  <rect x="132" y="356" width="252" height="84" rx="14" fill="#ffffff" stroke="#d7e5ff"/>
  <rect x="132" y="462" width="252" height="84" rx="14" fill="#ffffff" stroke="#d7e5ff"/>

  <circle cx="528" cy="182" r="34" fill="#e6f0ff"/>
  <circle cx="598" cy="182" r="34" fill="#eaf7ff"/>
  <circle cx="668" cy="182" r="34" fill="#eff3ff"/>
  <path d="M520 182 L536 166 L552 182 L576 158" fill="none" stroke="#2f55e7" stroke-width="5" stroke-linecap="round" stroke-linejoin="round"/>

  <rect x="734" y="152" width="328" height="18" rx="9" fill="url(#accent)"/>
  <rect x="734" y="184" width="284" height="12" rx="6" fill="#a3c4ff"/>
  <rect x="734" y="208" width="252" height="12" rx="6" fill="#b7d2ff"/>

  <rect x="486" y="366" width="244" height="16" rx="8" fill="#9fbfff"/>
  <rect x="486" y="396" width="188" height="12" rx="6" fill="#b8d2ff"/>
  <rect x="824" y="366" width="244" height="16" rx="8" fill="#8ed8ff"/>
  <rect x="824" y="396" width="200" height="12" rx="6" fill="#b5e8ff"/>

  <rect x="486" y="610" width="272" height="16" rx="8" fill="#9fbfff"/>
  <rect x="486" y="642" width="566" height="12" rx="6" fill="#bbd4ff"/>
  <rect x="486" y="668" width="510" height="12" rx="6" fill="#c7dcff"/>
</svg>
