<svg width="1200" height="860" viewBox="0 0 1200 860" xmlns="http://www.w3.org/2000/svg" role="img" aria-label="Corporate team collaboration illustration">
  <defs>
    <linearGradient id="panel" x1="0" y1="0" x2="1" y2="1">
      <stop offset="0%" stop-color="#0f2f56"/>
      <stop offset="100%" stop-color="#0a1d3d"/>
    </linearGradient>
    <linearGradient id="accent" x1="0" y1="0" x2="1" y2="1">
      <stop offset="0%" stop-color="#4de9ff"/>
      <stop offset="100%" stop-color="#0aa8d2"/>
    </linearGradient>
  </defs>
  <rect width="1200" height="860" rx="32" fill="#091932"/>
  <rect x="52" y="58" width="1096" height="744" rx="24" fill="url(#panel)" stroke="#72ddff" stroke-opacity="0.22" stroke-width="2"/>
  <rect x="118" y="132" width="404" height="252" rx="20" fill="#0f3c68" stroke="#7fe5ff" stroke-opacity="0.25"/>
  <rect x="565" y="132" width="520" height="112" rx="16" fill="#123f71" stroke="#7fe5ff" stroke-opacity="0.18"/>
  <rect x="565" y="272" width="520" height="112" rx="16" fill="#123f71" stroke="#7fe5ff" stroke-opacity="0.18"/>
  <rect x="118" y="424" width="967" height="308" rx="20" fill="#0d2f58" stroke="#7fe5ff" stroke-opacity="0.16"/>

  <circle cx="238" cy="566" r="52" fill="#1b5b8f"/>
  <circle cx="366" cy="566" r="52" fill="#1b5b8f"/>
  <circle cx="494" cy="566" r="52" fill="#1b5b8f"/>
  <circle cx="622" cy="566" r="52" fill="#1b5b8f"/>
  <circle cx="750" cy="566" r="52" fill="#1b5b8f"/>
  <circle cx="878" cy="566" r="52" fill="#1b5b8f"/>

  <rect x="196" y="634" width="84" height="18" rx="9" fill="url(#accent)"/>
  <rect x="324" y="634" width="84" height="18" rx="9" fill="url(#accent)"/>
  <rect x="452" y="634" width="84" height="18" rx="9" fill="url(#accent)"/>
  <rect x="580" y="634" width="84" height="18" rx="9" fill="url(#accent)"/>
  <rect x="708" y="634" width="84" height="18" rx="9" fill="url(#accent)"/>
  <rect x="836" y="634" width="84" height="18" rx="9" fill="url(#accent)"/>

  <rect x="154" y="194" width="332" height="18" rx="9" fill="url(#accent)" fill-opacity="0.9"/>
  <rect x="154" y="228" width="278" height="14" rx="7" fill="#8ceeff" fill-opacity="0.6"/>
  <rect x="154" y="254" width="236" height="14" rx="7" fill="#8ceeff" fill-opacity="0.5"/>

  <rect x="606" y="170" width="230" height="14" rx="7" fill="#8ceeff" fill-opacity="0.65"/>
  <rect x="606" y="198" width="310" height="14" rx="7" fill="#8ceeff" fill-opacity="0.45"/>
  <rect x="606" y="310" width="265" height="14" rx="7" fill="#8ceeff" fill-opacity="0.65"/>
  <rect x="606" y="338" width="338" height="14" rx="7" fill="#8ceeff" fill-opacity="0.45"/>
</svg>
